<svg height="120" viewBox="0 0 120 120" width="120" xmlns="http://www.w3.org/2000/svg"><path d="m33.4997571 72c5.6299175 0 9.0917921-3.3569694 9.0917921-8.8120447v-54.3409422c0-5.4550753-3.4618746-8.8470131-9.0917921-8.8470131h-24.407965c-5.6299175 0-9.0917921 3.3919378-9.0917921 8.8470131v54.3409422c0 5.4550753 3.4618746 8.8120447 9.0917921 8.8120447zm-.489558-4.301117h-23.428849c-3.4968431 0-5.2452647-1.7134532-5.2452647-5.1403594v-53.1170471c0-3.3919379 1.7484216-5.105391 5.2452647-5.105391h2.3079165c.5245265 0 .8042739.2797474.8042739.7693055v.6294317c0 1.293832.8392424 2.2030112 2.1330743 2.2030112h12.973288c1.293832 0 2.1330743-.9091792 2.1330743-2.2030112v-.6294317c0-.4895581.2797475-.7693055.7693055-.7693055h2.3079165c3.4968431 0 5.2802331 1.7134531 5.2802331 5.105391v53.1170471c0 3.4269062-1.78339 5.1403594-5.2802331 5.1403594zm-4.4409908-2.4827587c.7693055 0 1.3637688-.5594949 1.3637688-1.3637688 0-.8392423-.5944633-1.3987372-1.3637688-1.3987372h-14.511899c-.8042739 0-1.3637688.5594949-1.3637688 1.3987372 0 .8042739.5594949 1.3637688 1.3637688 1.3637688z" fill="#1d1d1f" transform="translate(39 24)"/></svg>