<svg height="120" viewBox="0 0 120 120" width="120" xmlns="http://www.w3.org/2000/svg"><path d="m18.3155293 72h24.4557929c2.2923651 0 4.1461399-.5192027 5.5613245-1.5576082 1.4151846-1.0384054 2.3333002-2.5493437 2.7543469-4.5328147.0233914-.1166748.0526308-.2391833.087718-.3675256.0350872-.1283422.0526308-.2508507.0526308-.3675255l-3.6490709-3.7452601v.6825474.6825474c-.046783 1.6334468-.5146126 2.8643656-1.4034889 3.6927565-.8888762.8283908-2.1871034 1.2425863-3.8946815 1.2425863h-23.4733507c-1.7543611 0-3.0759797-.4316967-3.964856-1.29509-.8888762-.8633933-1.3333144-2.1468157-1.3333144-3.8502674v-35.0724356l-4.31572814-4.3403014v40.0077784c0 2.7535245.81285394 4.9120077 2.43856184 6.4754496s3.8537464 2.3451629 6.6841156 2.3451629zm4.9823853-6.7204667h14.5611967c.3742637 0 .6900487-.134176.947355-.402528.2573062-.2683519.3859594-.600875.3859594-.9975692s-.1286532-.7233836-.3859594-.9800681c-.2573063-.2566845-.5730913-.3850267-.947355-.3850267h-14.5611967c-.3976551 0-.7309837.1283422-.9999857.3850267-.2690021.2566845-.4035031.5833739-.4035031.9800681s.134501.7292173.4035031.9975692c.269002.268352.6023306.402528.9999857.402528zm24.2803569-20.5114244 4.3157281 4.305299v-40.25279536c0-2.73018959-.8128539-4.88283908-2.4385618-6.45794847-1.6257079-1.57510938-3.8537464-2.36266407-6.6841156-2.36266407h-24.4557929c-2.3157566 0-4.1987708.5308702-5.6490426 1.5926106s-2.3742353 2.61934856-2.77189042 4.6728245l-.14034888.70004861 3.7543326 3.74526009v-1.33009237c0-1.70345162.4444382-2.97520661 1.3333144-3.81526494.8888763-.84005834 2.2104949-1.26008751 3.964856-1.26008751h2.3157566c.5146125 0 .7719188.25668449.7719188.77005348v.63004375c0 .6533787.1988276 1.1842489.5964828 1.5926106.3976551.40836169.9239634.61254253 1.5789249.61254253h12.9822717c.6549615 0 1.1754219-.20418084 1.5613813-.61254253.3859595-.4083617.5789392-.9392319.5789392-1.5926106v-.63004375c0-.51336899.2573063-.77005348.7719188-.77005348h2.3157566c1.7543611 0 3.0759797.42586291 3.964856 1.27758872.8888762.85172581 1.3333144 2.14098201 1.3333144 3.8677686zm9.8244218 21.1414682c.4210467.4200291.9181156.6300437 1.4912069.6300437s1.0584645-.2100146 1.4561197-.6300437c.4444381-.3733593.6608093-.8517259.6495634-1.4350997-.0121456-.5833739-.2285168-1.0850754-.6495634-1.5051045l-56.73603615-56.63393294c-.42104665-.39669421-.91811561-.60087506-1.49120689-.61301554-.57309127-.01119447-1.08185597.19298637-1.52629411.61301554-.39765516.39669422-.59648275.88672825-.59648275 1.47010209 0 .58337385.19882759 1.07340788.59648275 1.47010209z" fill="#1d1d1f" transform="translate(30 24)"/></svg>