<svg height="120" viewBox="0 0 120 120" width="120" xmlns="http://www.w3.org/2000/svg"><path d="m8.55272727 64h50.99636363c2.8509091 0 4.9939394-.7224242 6.4290909-2.1672727s2.1527273-3.5539394 2.1527273-6.3272728v-16.6690909c0-1.1054545-.0969697-1.9878788-.2909091-2.6472727s-.5721212-1.3284848-1.1345455-2.0072727l-10.9090909-13.7890909c-1.0084848-1.2412121-1.9345454-2.2690909-2.7781818-3.0836364-.8436363-.8145454-1.7890909-1.430303-2.8363636-1.8472727s-2.3369697-.6254546-3.8690909-.6254546h-4.0145455v3.2h4.3345455c1.1442424 0 2.1915151.32 3.1418182.96.950303.64 1.7842424 1.4060606 2.5018181 2.2981819l11.1709091 14.1963636c.4654546.6012121.6303031 1.0327273.4945455 1.2945454-.1357576.2618182-.5139394.3927273-1.1345455.3927273h-19.6363636c-.6206061 0-1.0812121.1987879-1.3818182.5963637-.3006061.3975757-.4509091.8581818-.4509091 1.3818181v.1454546c0 1.28-.310303 2.4872727-.9309091 3.6218182-.620606 1.1345454-1.4739394 2.0509091-2.56 2.7490909s-2.3466666 1.0472727-3.7818182 1.0472727c-1.4351515 0-2.700606-.3490909-3.7963636-1.0472727s-1.9490909-1.6145455-2.56-2.7490909c-.6109091-1.1345455-.9163636-2.3418182-.9163636-3.6218182v-.1454546c0-.5236363-.1551515-.9842424-.4654546-1.3818181-.310303-.3975758-.7757575-.5963637-1.3963636-.5963637h-19.57818183c-.65939394 0-1.04727272-.140606-1.16363636-.4218182-.11636364-.2812121.04848485-.7030303.49454545-1.2654545l11.17090914-14.1963636c.6981818-.8921213 1.5321212-1.6581819 2.5018181-2.2981819.969697-.64 2.0072728-.96 3.1127273-.96h4.3927273v-3.2h-4.0436364c-1.5515151 0-2.8412121.2084849-3.8690909.6254546s-1.9733333 1.0327273-2.8363636 1.8472727c-.8630303.8145455-1.7890909 1.8424243-2.7781818 3.0836364l-10.93818186 13.7890909c-.52363637.6787879-.88727273 1.3478788-1.09090909 2.0072727-.20363637.6593939-.30545455 1.5418182-.30545455 2.6472727v16.6690909c0 2.8121213.71757576 4.9309091 2.15272727 6.3563637 1.43515152 1.4254545 3.56848485 2.1381818 6.4 2.1381818zm.08727273-3.5781818c-1.64848485 0-2.90424242-.4315152-3.76727273-1.2945455-.8630303-.8630303-1.29454545-2.1381818-1.29454545-3.8254545v-14.8363637h19.78181818c.1551515 1.8618182.7224242 3.5151516 1.7018182 4.96.9793939 1.4448485 2.249697 2.579394 3.8109091 3.4036364s3.2921212 1.2363636 5.1927272 1.2363636c1.92 0 3.6557576-.4169697 5.2072728-1.250909 1.5515151-.8339394 2.8169697-1.9684849 3.7963636-3.4036364s1.5369697-3.0836364 1.6727273-4.9454546h19.7818182v14.8363637c0 1.6872727-.4363637 2.9624242-1.3090909 3.8254545-.8727273.8630303-2.1139394 1.2945455-3.7236364 1.2945455zm25.4254545-24.2909091c.2133334 0 .4266667-.0436364.64-.1309091.2133334-.0872727.4266667-.2375758.64-.4509091l10.24-10.0072727c.329697-.3490909.4945455-.7369697.4945455-1.1636364 0-.4654545-.150303-.8484848-.4509091-1.1490909s-.6836364-.4509091-1.1490909-.4509091c-.4848485 0-.8921212.1842424-1.2218182.5527273l-4.9454545 5.12-2.6181818 2.7054545.1454545-4.2472727v-25.16363635c0-.46545455-.1793939-.87272728-.5381818-1.22181819-.3587879-.3490909-.7709091-.52363636-1.2363637-.52363636-.4848484 0-.9018181.17454546-1.250909.52363636-.349091.34909091-.5236364.75636364-.5236364 1.22181819v25.16363635l.1454545 4.2472727-2.6472727-2.7054545-4.9163636-5.12c-.329697-.3684849-.7563637-.5527273-1.28-.5527273-.4654546 0-.8436364.150303-1.1345455.4509091s-.4363636.6836364-.4363636 1.1490909c0 .4266667.1648485.8145455.4945454 1.1636364l10.2690909 10.0072727c.2133334.2133333.4218182.3636364.6254546.4509091s.4218182.1309091.6545454.1309091z" transform="translate(25.470703 27.863281)"/></svg>